<svg id="Layer_1" data-name="Layer 1" xmlns="http://www.w3.org/2000/svg" viewBox="0 0 30 30"><defs><style>.cls-1{fill:none;}.cls-2{fill:#637587;}</style></defs><rect class="cls-1" width="30" height="30" rx="3" ry="3"/><path class="cls-2" d="M19.79,3.95a1.12,1.12,0,0,0-1.58,1.58l3.32,3.32H9.79a1.12,1.12,0,0,0,0,2.24H21.52l-3.32,3.32A1.12,1.12,0,1,0,19.79,16L25,10.76a1.12,1.12,0,0,0,0-1.58Zm0,0"/><path class="cls-2" d="M10.21,26.05a1.12,1.12,0,1,0,1.58-1.58L8.48,21.15H20.21a1.12,1.12,0,0,0,0-2.24H8.48l3.32-3.32A1.12,1.12,0,1,0,10.21,14L5,19.24a1.12,1.12,0,0,0,0,1.58Zm0,0"/></svg>