<svg id="Layer_1" data-name="Layer 1" xmlns="http://www.w3.org/2000/svg" viewBox="0 0 30 30"><defs><style>.cls-1{fill:none;}.cls-2{fill:#637587;}</style></defs><rect class="cls-1" width="30" height="30" rx="3" ry="3"/><path class="cls-2" d="M19.79,4.95a1.12,1.12,0,1,0-1.58,1.58l3.32,3.32H10.79a1.12,1.12,0,0,0,0,2.24H21.52l-3.32,3.32A1.12,1.12,0,1,0,19.79,17L25,11.76a1.12,1.12,0,0,0,0-1.58Zm0,0"/><path class="cls-2" d="M10.65,18.74a4.45,4.45,0,1,1,0-8.89,1.12,1.12,0,1,1,0,2.25,2.2,2.2,0,1,0,0,4.39,1.13,1.13,0,0,1,0,2.25Z"/><path class="cls-2" d="M10.76,25.38h-5a1.13,1.13,0,1,1,0-2.25h5a2.2,2.2,0,1,0,0-4.39,1.13,1.13,0,0,1,0-2.25,4.45,4.45,0,1,1,0,8.89Z"/></svg>