<svg id="Layer_1" data-name="Layer 1" xmlns="http://www.w3.org/2000/svg" viewBox="0 0 30 30"><defs><style>.cls-1{fill:none;}.cls-2{fill:#637587;}</style></defs><rect class="cls-1" width="30" height="30" rx="3" ry="3"/><path class="cls-2" d="M24.76,4.88H5.24A1.93,1.93,0,0,0,3.31,6.8V23.2a1.93,1.93,0,0,0,1.92,1.92H24.76a1.93,1.93,0,0,0,1.92-1.92V6.8A1.93,1.93,0,0,0,24.76,4.88ZM5.1,15.74H24.9V23.2a.13.13,0,0,1-.13.13H5.24a.13.13,0,0,1-.13-.13ZM24.9,14H5.1V10.51H24.9ZM5.1,8.72V6.8a.13.13,0,0,1,.13-.13H24.76a.13.13,0,0,1,.13.13V8.72Z"/><circle class="cls-2" cx="6.84" cy="7.69" r="0.7"/><circle class="cls-2" cx="8.7" cy="7.69" r="0.7"/><circle class="cls-2" cx="10.56" cy="7.69" r="0.7"/><path class="cls-2" d="M7.76,19.74H22.24a.9.9,0,0,0,0-1.79H7.76a.9.9,0,0,0,0,1.79Z"/></svg>