<svg id="Layer_1" data-name="Layer 1" xmlns="http://www.w3.org/2000/svg" viewBox="0 0 30 30"><defs><style>.cls-1{fill:none;}.cls-2{fill:#637587;}</style></defs><rect class="cls-1" width="30" height="30" rx="3" ry="3"/><path class="cls-2" d="M20.52,9a1.12,1.12,0,1,0-1.58,1.58l3.32,3.32H9.52a1.12,1.12,0,0,0,0,2.24H22.25l-3.32,3.32A1.12,1.12,0,1,0,20.52,21l5.23-5.23a1.12,1.12,0,0,0,0-1.58Zm0,0"/><path class="cls-2" d="M14.75,25.33a1.12,1.12,0,0,0,0-2.24H6.16V6.91h8.59a1.12,1.12,0,0,0,0-2.24H5A1.12,1.12,0,0,0,3.92,5.79V24.21A1.12,1.12,0,0,0,5,25.33Zm0,0"/></svg>