<svg id="Layer_1" data-name="Layer 1" xmlns="http://www.w3.org/2000/svg" viewBox="0 0 110 110"><defs><style>.cls-1{fill:#eaeff4;}.cls-2{fill:#637587;}</style></defs><path class="cls-1" d="M110,55A55,55,0,1,1,55,0,55.16,55.16,0,0,1,110,55Z"/><circle class="cls-2" cx="55.21" cy="67.07" r="1.97"/><path class="cls-2" d="M53.46,45.17V60.26a1.75,1.75,0,0,0,3.5,0V45.17a1.75,1.75,0,0,0-3.5,0Z"/><path class="cls-2" d="M82.82,75,56.76,26.06a1.82,1.82,0,0,0-3.09,0L27.6,75a1.75,1.75,0,0,0,1.54,2.57H81.28A1.75,1.75,0,0,0,82.82,75Zm-50.77-.93L55.21,30.6,78.37,74.07Z"/></svg>