<svg id="Layer_1" data-name="Layer 1" xmlns="http://www.w3.org/2000/svg" viewBox="0 0 110 110"><defs><style>.cls-1{fill:#eaeff4;}.cls-2{fill:#637587;}</style></defs><path class="cls-1" d="M110,55A55,55,0,1,1,55,0,55.16,55.16,0,0,1,110,55Z"/><path class="cls-2" d="M65.35,50.64H44.49a1.6,1.6,0,1,0,0,3.18H65.35a1.6,1.6,0,1,0,0-3.18Z"/><path class="cls-2" d="M65.35,58.24H44.49a1.6,1.6,0,1,0,0,3.18H65.35a1.6,1.6,0,1,0,0-3.18Z"/><path class="cls-2" d="M65.35,65.84H44.49a1.6,1.6,0,1,0,0,3.18H65.35a1.6,1.6,0,1,0,0-3.18Z"/><path class="cls-2" d="M59.19,76.28H36.78a3.63,3.63,0,0,1-3.63-3.63V45.43H76.7V54a1.81,1.81,0,1,0,3.63,0V36.36a7.27,7.27,0,0,0-7.26-7.26H36.78a7.27,7.27,0,0,0-7.26,7.26V72.65a7.27,7.27,0,0,0,7.26,7.26H59.19a1.82,1.82,0,1,0,0-3.63Zm-26-39.92a3.63,3.63,0,0,1,3.63-3.63H73.07a3.63,3.63,0,0,1,3.63,3.63V41.8H33.15Z"/><path class="cls-2" d="M65.62,74.32c-.35-.35-.74-.25-.86.24L62.89,82c-.12.48.18.79.67.68L71.18,81c.49-.11.6-.49.24-.84Z"/><path class="cls-2" d="M89.25,62.53l-6-6a.91.91,0,0,0-1.28,0L67.62,70.82a.91.91,0,0,0,0,1.28l6,6a.91.91,0,0,0,1.28,0L89.25,63.81A.91.91,0,0,0,89.25,62.53Z"/></svg>