<svg id="Layer_1" data-name="Layer 1" xmlns="http://www.w3.org/2000/svg" viewBox="0 0 110 110"><defs><style>.cls-1{fill:#eaeff4;}.cls-2{fill:#637587;}</style></defs><path class="cls-1" d="M110,55A55,55,0,1,1,55,0,55.16,55.16,0,0,1,110,55Z"/><path class="cls-2" d="M65.35,50.64H44.49a1.6,1.6,0,1,0,0,3.18H65.35a1.6,1.6,0,1,0,0-3.18Z"/><path class="cls-2" d="M65.35,58.24H44.49a1.6,1.6,0,1,0,0,3.18H65.35a1.6,1.6,0,1,0,0-3.18Z"/><path class="cls-2" d="M65.35,65.84H44.49a1.6,1.6,0,1,0,0,3.18H65.35a1.6,1.6,0,1,0,0-3.18Z"/><path class="cls-2" d="M73.07,29.1H36.78a7.27,7.27,0,0,0-7.26,7.26V72.65a7.27,7.27,0,0,0,7.26,7.26H73.07a7.27,7.27,0,0,0,7.26-7.26V36.36A7.27,7.27,0,0,0,73.07,29.1ZM33.15,36.36a3.63,3.63,0,0,1,3.63-3.63H73.07a3.63,3.63,0,0,1,3.63,3.63V41.8H33.15ZM76.7,49.08V72.65a3.63,3.63,0,0,1-3.63,3.63H36.78a3.63,3.63,0,0,1-3.63-3.63V45.43H76.7v3.65Z"/></svg>