<svg id="Layer_1" data-name="Layer 1" xmlns="http://www.w3.org/2000/svg" viewBox="0 0 16 16"><defs><style>.cls-1{fill:#ced0da;}.cls-2{fill:none;stroke:#06aecc;stroke-linecap:round;stroke-linejoin:round;fill-rule:evenodd;}</style></defs><path class="cls-1" d="M13.5,16H2.5A2.5,2.5,0,0,1,0,13.5V2.5A2.5,2.5,0,0,1,2.5,0h11A2.5,2.5,0,0,1,16,2.5v11A2.5,2.5,0,0,1,13.5,16ZM2.5,1A1.5,1.5,0,0,0,1,2.5v11A1.5,1.5,0,0,0,2.5,15h11A1.5,1.5,0,0,0,15,13.5V2.5A1.5,1.5,0,0,0,13.5,1Z"/><polyline class="cls-2" points="12.13 4.6 7.2 11.02 3.88 7.7"/></svg>