<svg id="Layer_1" data-name="Layer 1" xmlns="http://www.w3.org/2000/svg" viewBox="0 0 25 25"><defs><style>.cls-1{fill:#637587;}.cls-2{fill:#fff;}</style></defs><rect class="cls-1" width="25" height="25"/><path class="cls-2" d="M19,11.15,18,11a5.73,5.73,0,0,0-.41-1l.6-.84A.89.89,0,0,0,18.06,8l-.9-.9a.89.89,0,0,0-.63-.26A.88.88,0,0,0,16,7l-.84.6a5.66,5.66,0,0,0-1-.42L14,6.2a.89.89,0,0,0-.88-.74H11.84A.89.89,0,0,0,11,6.2l-.17,1a5.57,5.57,0,0,0-1,.41L9,7a.89.89,0,0,0-1.15.1l-.9.9a.89.89,0,0,0-.1,1.15l.6.85A5.58,5.58,0,0,0,7,11l-1,.17a.89.89,0,0,0-.74.88v1.27a.89.89,0,0,0,.74.88l1,.17a5.58,5.58,0,0,0,.41,1l-.59.83A.89.89,0,0,0,7,17.34l.9.9a.89.89,0,0,0,1.15.1l.85-.6a5.7,5.7,0,0,0,1,.39l.17,1a.89.89,0,0,0,.88.74h1.27a.89.89,0,0,0,.88-.74l.17-1a5.71,5.71,0,0,0,1-.41l.84.6a.89.89,0,0,0,1.15-.1l.9-.9a.89.89,0,0,0,.1-1.15l-.6-.84a5.66,5.66,0,0,0,.41-1l1-.17a.89.89,0,0,0,.74-.88V12a.88.88,0,0,0-.74-.88Zm-.07,2.15a.08.08,0,0,1-.07.08l-1.27.21a.4.4,0,0,0-.33.3,4.83,4.83,0,0,1-.52,1.26.41.41,0,0,0,0,.44l.74,1a.08.08,0,0,1,0,.1l-.9.9a.08.08,0,0,1-.06,0l0,0-1-.74a.41.41,0,0,0-.44,0,4.83,4.83,0,0,1-1.26.52.4.4,0,0,0-.3.33L13.21,19a.08.08,0,0,1-.08.07H11.87a.08.08,0,0,1-.08-.07l-.21-1.27a.41.41,0,0,0-.3-.33A5,5,0,0,1,10,16.91a.42.42,0,0,0-.2-.05.4.4,0,0,0-.24.08l-1.06.75,0,0a.08.08,0,0,1-.06,0l-.9-.9a.08.08,0,0,1,0-.1l.74-1a.41.41,0,0,0,0-.45,4.78,4.78,0,0,1-.53-1.26.41.41,0,0,0-.33-.3l-1.28-.22a.08.08,0,0,1-.07-.08V12.06A.08.08,0,0,1,6.16,12l1.26-.21a.41.41,0,0,0,.33-.3,4.82,4.82,0,0,1,.52-1.27.4.4,0,0,0,0-.44L7.49,8.71a.08.08,0,0,1,0-.1l.9-.9a.08.08,0,0,1,.06,0l0,0,1,.74a.41.41,0,0,0,.45,0,4.78,4.78,0,0,1,1.26-.53.41.41,0,0,0,.3-.33l.22-1.28a.08.08,0,0,1,.08-.07h1.27a.08.08,0,0,1,.08.07l.21,1.26a.41.41,0,0,0,.3.33A4.9,4.9,0,0,1,15,8.45a.41.41,0,0,0,.44,0l1-.75,0,0a.08.08,0,0,1,.06,0l.9.9a.08.08,0,0,1,0,.1l-.74,1a.41.41,0,0,0,0,.44,4.83,4.83,0,0,1,.52,1.26.4.4,0,0,0,.33.3l1.27.21a.08.08,0,0,1,.07.08V13.3Zm0,0"/><path class="cls-2" d="M12.5,9.55a3.11,3.11,0,1,0,3.11,3.11A3.12,3.12,0,0,0,12.5,9.55Zm0,5.42a2.3,2.3,0,1,1,2.3-2.3A2.3,2.3,0,0,1,12.5,15Zm0,0"/></svg>