<svg id="Layer_1" data-name="Layer 1" xmlns="http://www.w3.org/2000/svg" viewBox="0 0 25 25"><defs><style>.cls-1{fill:#637587;}.cls-2{fill:#fff;}</style></defs><rect class="cls-1" width="25" height="25"/><path class="cls-2" d="M18.83,6.57a3.21,3.21,0,0,0-4.54,0L6,14.89a.42.42,0,0,0-.12.24L5.23,19.7a.41.41,0,0,0,.12.35.42.42,0,0,0,.29.12H5.7l4.56-.61a.42.42,0,1,0-.11-.83l-4,.54.43-3.19,3.35,3.35a.42.42,0,0,0,.29.12.41.41,0,0,0,.29-.12l8.32-8.32a3.21,3.21,0,0,0,0-4.54Zm-4.38,1L15.85,9,8.25,16.59l-1.4-1.4ZM10.22,18.54,8.85,17.18l7.59-7.59,1.37,1.37Zm8.18-8.19L15,7a2.37,2.37,0,0,1,3.34,3.34Zm0,0"/></svg>