<svg id="Layer_1" data-name="Layer 1" xmlns="http://www.w3.org/2000/svg" viewBox="0 0 25 25"><defs><style>.cls-1{fill:#637587;}.cls-2{fill:#fff;}</style></defs><rect class="cls-1" width="25" height="25"/><path class="cls-2" d="M18.44,7.41h-3V6.92a1.57,1.57,0,0,0-1.57-1.57H11.09A1.57,1.57,0,0,0,9.52,6.92v.48h-3a.4.4,0,1,0,0,.79h.71v9.29A2.12,2.12,0,0,0,9.39,19.6h6.22a2.12,2.12,0,0,0,2.11-2.11V8.2h.71a.4.4,0,0,0,0-.79Zm-8.12-.48a.78.78,0,0,1,.78-.78h2.82a.78.78,0,0,1,.78.78v.48H10.32Zm6.62,10.56a1.33,1.33,0,0,1-1.32,1.32H9.39a1.33,1.33,0,0,1-1.32-1.32V8.2h8.87v9.29Zm0,0"/><path class="cls-2" d="M12.5,17.39a.39.39,0,0,0,.4-.4V10a.4.4,0,0,0-.79,0v7a.4.4,0,0,0,.4.4Zm0,0"/><path class="cls-2" d="M9.92,17a.39.39,0,0,0,.4-.4V10.44a.4.4,0,1,0-.79,0v6.12a.4.4,0,0,0,.4.4Zm0,0"/><path class="cls-2" d="M15.08,17a.39.39,0,0,0,.4-.4V10.44a.4.4,0,1,0-.79,0v6.12a.39.39,0,0,0,.4.4Zm0,0"/></svg>