<svg id="Layer_1" data-name="Layer 1" xmlns="http://www.w3.org/2000/svg" viewBox="0 0 22 22"><defs><style>.cls-1{fill:#787a82;}</style></defs><path class="cls-1" d="M18.5,22H3.5A3.5,3.5,0,0,1,0,18.5V3.5A3.5,3.5,0,0,1,3.5,0h15A3.5,3.5,0,0,1,22,3.5v15A3.5,3.5,0,0,1,18.5,22ZM3.5,1A2.5,2.5,0,0,0,1,3.5v15A2.5,2.5,0,0,0,3.5,21h15A2.5,2.5,0,0,0,21,18.5V3.5A2.5,2.5,0,0,0,18.5,1Z"/><polygon class="cls-1" points="11 11.43 10.49 11.46 6.97 7.94 7.68 7.23 11 10.56 14.32 7.23 15.03 7.94 11.56 11.4 11 11.43"/><polygon class="cls-1" points="14.32 15.06 11 11.74 7.68 15.06 6.97 14.36 10.53 10.79 11 10.82 11.41 10.74 15.03 14.36 14.32 15.06"/></svg>