<svg id="Layer_1" data-name="Layer 1" xmlns="http://www.w3.org/2000/svg" viewBox="0 0 22 22"><defs><style>.cls-1{opacity:0;}.cls-2{opacity:0.2;}.cls-3{fill:#fff;}</style></defs><g class="cls-1"><g class="cls-2"><path class="cls-3" d="M22,11A11,11,0,1,1,11,0,11,11,0,0,1,22,11Z"/></g></g><path class="cls-3" d="M12.8,6.69a.52.52,0,0,1-.37-.15L11,5.15,9.67,6.54a.52.52,0,1,1-.74-.74L10.68,4a.52.52,0,0,1,.74,0l1.75,1.75a.52.52,0,0,1-.37.9Z"/><path class="cls-3" d="M11,18.14a.52.52,0,0,1-.37-.15L8.92,16.23a.52.52,0,1,1,.74-.74L11,16.87l1.38-1.38a.52.52,0,1,1,.74.74L11.42,18A.52.52,0,0,1,11,18.14Z"/><path class="cls-3" d="M17.65,11.54H4.45a.52.52,0,1,1,0-1h13.2a.52.52,0,1,1,0,1Z"/><path class="cls-3" d="M11,18.14a.52.52,0,0,1-.52-.52V4.41a.52.52,0,1,1,1,0v13.2A.52.52,0,0,1,11,18.14Z"/><path class="cls-3" d="M6.2,13.29a.52.52,0,0,1-.37-.15L4.08,11.38a.52.52,0,0,1,0-.74L5.83,8.89a.52.52,0,0,1,.74.74L5.19,11l1.38,1.38a.52.52,0,0,1-.37.9Z"/><path class="cls-3" d="M15.9,13.29a.52.52,0,0,1-.37-.9L16.91,11,15.52,9.63a.52.52,0,1,1,.74-.74L18,10.64a.52.52,0,0,1,0,.74l-1.75,1.75A.52.52,0,0,1,15.9,13.29Z"/></svg>