<svg id="Layer_1" data-name="Layer 1" xmlns="http://www.w3.org/2000/svg" viewBox="0 0 22 22"><defs><style>.cls-1{fill:none;}.cls-2{fill:#637587;}</style></defs><path class="cls-1" d="M22,11A11,11,0,1,1,11,0,11,11,0,0,1,22,11Z"/><path class="cls-2" d="M14.13,9.81H8.22a.45.45,0,1,0,0,.9h5.91a.45.45,0,1,0,0-.9Z"/><path class="cls-2" d="M14.13,12H8.22a.45.45,0,1,0,0,.9h5.91a.45.45,0,1,0,0-.9Z"/><path class="cls-2" d="M14.13,14.11H8.22a.45.45,0,1,0,0,.9h5.91a.45.45,0,1,0,0-.9Z"/><path class="cls-2" d="M12.38,17.07H6a1,1,0,0,1-1-1V8.33H17.35v2.44a.51.51,0,1,0,1,0v-5A2.06,2.06,0,0,0,16.32,3.7H6A2.06,2.06,0,0,0,4,5.76V16A2.06,2.06,0,0,0,6,18.1h6.35a.51.51,0,0,0,0-1ZM5,5.76a1,1,0,0,1,1-1H16.32a1,1,0,0,1,1,1V7.3H5Z"/><path class="cls-2" d="M14.21,16.51c-.1-.1-.21-.07-.24.07l-.53,2.11c0,.14.05.22.19.19l2.16-.49c.14,0,.17-.14.07-.24Z"/><rect class="cls-2" x="14.71" y="13.07" width="6.25" height="2.93" rx="0.26" ry="0.26" transform="translate(-5.05 16.87) rotate(-45)"/></svg>