<svg id="Layer_1" data-name="Layer 1" xmlns="http://www.w3.org/2000/svg" viewBox="0 0 17.82 18.77"><defs><style>.cls-1{fill:#637587;}</style></defs><path class="cls-1" d="M8.92,14.63a1,1,0,0,1-.71-1.71l3.54-3.54L8.21,5.85A1,1,0,0,1,9.63,4.43l4.25,4.25a1,1,0,0,1,0,1.41L9.63,14.34A1,1,0,0,1,8.92,14.63Z"/><path class="cls-1" d="M16.82,18.77H4.92a1,1,0,0,1-1-1V13a1,1,0,0,1,2,0v3.73h9.91V2H5.92V5.73a1,1,0,0,1-2,0V1a1,1,0,0,1,1-1H16.82a1,1,0,0,1,1,1V17.77A1,1,0,0,1,16.82,18.77Z"/><path class="cls-1" d="M12.8,10.39H1a1,1,0,0,1,0-2H12.8a1,1,0,0,1,0,2Z"/></svg>