<svg xmlns="http://www.w3.org/2000/svg" viewBox="0 0 21.03 20.06"><defs><style>.cls-1{isolation:isolate;}.cls-2{opacity:0.2;mix-blend-mode:multiply;}</style></defs><g class="cls-1"><g id="Layer_1" data-name="Layer 1"><g class="cls-2"><path d="M11,.38l2.22,6.88h7.23a.54.54,0,0,1,.55.54.57.57,0,0,1-.22.44L15,12.47l2.25,6.88a.54.54,0,0,1-.35.68.55.55,0,0,1-.52-.1l-5.81-4.24L4.67,19.95a.54.54,0,0,1-.76-.12.53.53,0,0,1-.08-.48h0l2.25-6.88L.23,8.23A.53.53,0,0,1,.1,7.47a.52.52,0,0,1,.48-.22h7.2L10,.38A.55.55,0,0,1,10.68,0,.56.56,0,0,1,11,.38ZM12.34,8,10.52,2.31,8.69,8a.54.54,0,0,1-.52.38H2.23L7,11.82a.54.54,0,0,1,.19.61L5.39,18.08l4.79-3.5a.55.55,0,0,1,.65,0l4.8,3.5L13.8,12.45a.55.55,0,0,1,.19-.63l4.83-3.48H12.88A.53.53,0,0,1,12.34,8Zm0,0"/></g></g></g></svg>