<svg id="Layer_1" data-name="Layer 1" xmlns="http://www.w3.org/2000/svg" viewBox="0 0 60 60"><defs><style>.cls-1{fill:none;}</style></defs><rect class="cls-1" width="60" height="60"/><path d="M40.06,28.37l-3.05-4c2.87-3.14,6.72-4.37,10.43-3a9.08,9.08,0,0,1,6.06,8.86A9.1,9.1,0,0,1,39,37.36a26.37,26.37,0,0,1-5.49-5.67c-1.67-2.1-3.3-4.24-5.07-6.27a11.78,11.78,0,0,0-6.06-4,8.81,8.81,0,0,0-4.28,17.1,9.06,9.06,0,0,0,8.8-2.46c1.42-1.31,2.69-2.77,4.08-4.22l3.19,4c-.57.66-1.14,1.36-1.75,2a17.93,17.93,0,0,1-8.67,5.68,13.92,13.92,0,1,1,5.38-24.38A38.1,38.1,0,0,1,36,26.45c1.26,1.62,2.51,3.25,3.86,4.79a12.51,12.51,0,0,0,2.47,2.13,3.7,3.7,0,0,0,4.46-.15A4,4,0,0,0,48.27,29a4.12,4.12,0,0,0-3.42-3,3.77,3.77,0,0,0-2.71.73c-.7.49-1.35,1.07-2.09,1.66"/></svg>