<svg id="Layer_1" data-name="Layer 1" xmlns="http://www.w3.org/2000/svg" viewBox="0 0 60 60"><defs><style>.cls-1{fill:none;}.cls-2{fill:#bf3078;}.cls-3{fill:#802050;}.cls-4{fill:#26134d;}</style></defs><rect class="cls-1" width="60" height="60"/><path class="cls-2" d="M48.26,20.29a9.71,9.71,0,1,1,0,19.42,9.92,9.92,0,0,1-9.64-7.26l.88.56.46-.69A8.66,8.66,0,0,0,56.89,30a8.52,8.52,0,0,0-8.63-8.41,8.93,8.93,0,0,0-1.2.08l.83-1.25-.17-.11h.54Z"/><path class="cls-3" d="M38.3,20.29h10L35,39.71l-5-7.28-5,7.28-5-7.36.79-1.18L25,37.38l3.87-5.67L30,30.09l1.1,1.62L35,37.38l10.8-15.79H27.15L28,20.29Z"/><path class="cls-4" d="M15.06,39.71,1.78,20.29H28.34L15.06,39.71Zm0-2.33,10.8-15.79H4.26l10.8,15.79Z"/></svg>