<svg id="Layer_1" data-name="Layer 1" xmlns="http://www.w3.org/2000/svg" xmlns:xlink="http://www.w3.org/1999/xlink" viewBox="0 0 60 60"><defs><style>.cls-1{fill:none;}.cls-2,.cls-8{fill:#fff;}.cls-2{opacity:0;}.cls-3{fill:url(#linear-gradient);}.cls-4{fill:#f57c00;}.cls-5{fill:#ffc107;}.cls-6{clip-path:url(#clip-path);}.cls-7{fill:url(#linear-gradient-3);}.cls-8,.cls-9{opacity:0.2;isolation:isolate;}.cls-9{fill:#bf360c;}.cls-10{fill:url(#linear-gradient-4);}</style><linearGradient id="linear-gradient" x1="-2010.47" y1="550.87" x2="-2008.64" y2="550.87" gradientTransform="translate(33055.41 -9023.17) scale(16.43)" gradientUnits="userSpaceOnUse"><stop offset="0" stop-color="#fff" stop-opacity="0.1"/><stop offset="1" stop-color="#fff" stop-opacity="0"/></linearGradient><clipPath id="clip-path"><path class="cls-1" d="M42.59,15H37.17a2.42,2.42,0,0,0-2.41,2.41v7.06H26.87a2.37,2.37,0,0,0-2.37,2.37v7.89H17.39A2.37,2.37,0,0,0,15,37.1v5.52A2.37,2.37,0,0,0,17.39,45H42.59A2.42,2.42,0,0,0,45,42.58V17.42A2.42,2.42,0,0,0,42.59,15Z"/></clipPath><linearGradient id="linear-gradient-3" x1="-2009.57" y1="550.85" x2="-2008.68" y2="551.74" gradientTransform="translate(33055.41 -9023.17) scale(16.43)" gradientUnits="userSpaceOnUse"><stop offset="0" stop-color="#bf360c" stop-opacity="0.2"/><stop offset="1" stop-color="#bf360c" stop-opacity="0.02"/></linearGradient><linearGradient id="linear-gradient-4" x1="-2009.85" y1="550.57" x2="-2008.67" y2="551.75" xlink:href="#linear-gradient"/></defs><rect class="cls-2" width="60" height="60"/><path class="cls-3" d="M42.57,15H37.11a2.42,2.42,0,0,0-2.41,2.41v7.06H26.79a2.34,2.34,0,0,0-2.33,2.35v7.91H17.35A2.34,2.34,0,0,0,15,37.08V42.6A2.4,2.4,0,0,0,17.35,45H42.59A2.42,2.42,0,0,0,45,42.58V17.42A2.45,2.45,0,0,0,42.57,15Z"/><path class="cls-3" d="M42.57,15H37.11a2.42,2.42,0,0,0-2.41,2.41v7.06H26.79a2.34,2.34,0,0,0-2.33,2.35v7.91H17.35A2.34,2.34,0,0,0,15,37.08V42.6A2.4,2.4,0,0,0,17.35,45H42.59A2.42,2.42,0,0,0,45,42.58V17.42A2.45,2.45,0,0,0,42.57,15Z"/><path class="cls-4" d="M42.59,15H37.17a2.42,2.42,0,0,0-2.41,2.41V45h7.83A2.42,2.42,0,0,0,45,42.58V17.42A2.42,2.42,0,0,0,42.59,15Z"/><path class="cls-5" d="M24.49,26.84v7.89h-7.1A2.37,2.37,0,0,0,15,37.1v5.52A2.37,2.37,0,0,0,17.39,45H34.74V24.48H26.85A2.37,2.37,0,0,0,24.49,26.84Z"/><path class="cls-1" d="M42.59,15H37.17a2.42,2.42,0,0,0-2.41,2.41v7.06H26.87a2.37,2.37,0,0,0-2.37,2.37v7.89H17.39A2.37,2.37,0,0,0,15,37.1v5.52A2.37,2.37,0,0,0,17.39,45H42.59A2.42,2.42,0,0,0,45,42.58V17.42A2.42,2.42,0,0,0,42.59,15Z"/><g class="cls-6"><path class="cls-7" d="M34.74,24.48V45h7.83A2.42,2.42,0,0,0,45,42.58V34.73Z"/></g><g class="cls-6"><path class="cls-8" d="M26.85,24.67h7.89v-.2H26.85a2.37,2.37,0,0,0-2.37,2.37V27A2.37,2.37,0,0,1,26.85,24.67Z"/></g><g class="cls-6"><path class="cls-8" d="M17.39,34.93h7.1v-.2h-7.1A2.37,2.37,0,0,0,15,37.1v.2A2.37,2.37,0,0,1,17.39,34.93Z"/></g><g class="cls-6"><path class="cls-8" d="M42.59,15H37.17a2.42,2.42,0,0,0-2.41,2.41v.2a2.42,2.42,0,0,1,2.41-2.41h5.42A2.42,2.42,0,0,1,45,17.61v-.2A2.42,2.42,0,0,0,42.59,15Z"/></g><g class="cls-6"><path class="cls-9" d="M42.59,44.79H17.39A2.37,2.37,0,0,1,15,42.43v.2A2.37,2.37,0,0,0,17.39,45H42.57A2.42,2.42,0,0,0,45,42.58v-.2a2.39,2.39,0,0,1-2.39,2.41Z"/></g><path class="cls-10" d="M42.59,15H37.17a2.42,2.42,0,0,0-2.41,2.41v7.06H26.87a2.37,2.37,0,0,0-2.37,2.37v7.89H17.39A2.37,2.37,0,0,0,15,37.1v5.52A2.37,2.37,0,0,0,17.39,45H42.59A2.42,2.42,0,0,0,45,42.58V17.42A2.42,2.42,0,0,0,42.59,15Z"/></svg>