<?xml version="1.0" encoding="iso-8859-1"?>
<!-- Generator: Adobe Illustrator 19.0.0, SVG Export Plug-In . SVG Version: 6.00 Build 0)  -->
<svg version="1.1" id="Layer_1" xmlns="http://www.w3.org/2000/svg" xmlns:xlink="http://www.w3.org/1999/xlink" x="0px" y="0px"
	 viewBox="0 0 512 512" style="enable-background:new 0 0 512 512;" xml:space="preserve">
<g>
	<g>
		<path d="M484.969,27.027C467.542,9.601,444.372,0.004,419.726,0.004c-24.644,0-47.814,9.597-65.241,27.023l-74.619,74.621
			c-21.021,21.021-30.653,51.087-25.766,80.428c1.216,7.303,8.132,12.237,15.423,11.019c7.302-1.217,12.234-8.122,11.019-15.424
			c-3.469-20.819,3.365-42.153,18.279-57.067l74.621-74.621c12.363-12.364,28.802-19.173,46.286-19.173
			c17.484,0,33.923,6.809,46.286,19.173c12.368,12.367,19.18,28.806,19.18,46.286c0,17.48-6.813,33.918-19.18,46.286l-78.841,78.841
			c-14.256,14.257-34.548,20.288-54.28,16.148c-7.244-1.527-14.351,3.115-15.872,10.361c-1.523,7.244,3.118,14.351,10.362,15.872
			c5.946,1.249,11.925,1.862,17.854,1.86c22.62,0,44.504-8.901,60.89-25.285l78.843-78.841C502.399,140.08,512,116.91,512,92.27
			C512,67.63,502.399,44.46,484.969,27.027z"/>
	</g>
</g>
<g>
	<g>
		<path d="M257.897,329.944c-1.205-7.303-8.101-12.244-15.407-11.042c-7.303,1.205-12.246,8.104-11.042,15.406
			c0.591,3.579,0.89,7.212,0.89,10.802c0,17.49-6.806,33.927-19.165,46.286l-74.621,74.621
			c-12.363,12.364-28.802,19.173-46.286,19.173c-17.484,0-33.923-6.809-46.286-19.173c-12.364-12.363-19.173-28.801-19.173-46.285
			c0-17.482,6.809-33.915,19.173-46.274l74.619-74.634c14.898-14.895,36.23-21.722,57.06-18.263
			c7.291,1.212,14.203-3.723,15.418-11.027c1.213-7.302-3.723-14.206-11.025-15.419c-29.344-4.867-59.405,4.751-80.408,25.754
			l-74.617,74.633C9.598,371.921,0,395.087,0,419.731s9.597,47.813,27.023,65.241c17.427,17.427,40.597,27.023,65.242,27.023
			c24.644,0,47.814-9.597,65.241-27.025l74.621-74.621c17.421-17.423,27.017-40.593,27.017-65.242
			C259.144,340.062,258.725,334.959,257.897,329.944z"/>
	</g>
</g>
<g>
	<g>
		<path d="M363.456,148.543c-5.235-5.233-13.722-5.233-18.956,0L148.534,344.509c-5.234,5.235-5.234,13.722,0,18.956
			c2.616,2.616,6.047,3.926,9.477,3.926s6.86-1.308,9.477-3.926l195.967-195.966C368.69,162.264,368.69,153.777,363.456,148.543z"/>
	</g>
</g>
<g>
</g>
<g>
</g>
<g>
</g>
<g>
</g>
<g>
</g>
<g>
</g>
<g>
</g>
<g>
</g>
<g>
</g>
<g>
</g>
<g>
</g>
<g>
</g>
<g>
</g>
<g>
</g>
<g>
</g>
</svg>
