<?xml version="1.0" encoding="iso-8859-1"?>
<!-- Generator: Adobe Illustrator 19.0.0, SVG Export Plug-In . SVG Version: 6.00 Build 0)  -->
<svg version="1.1" id="Layer_1" xmlns="http://www.w3.org/2000/svg" xmlns:xlink="http://www.w3.org/1999/xlink" x="0px" y="0px"
	 viewBox="0 0 512 512" style="enable-background:new 0 0 512 512;" xml:space="preserve">
<g>
	<g>
		<path d="M447.98,103.699c-0.043-3.107-1.251-6.151-3.536-8.437l-91.7-91.7c-3.478-3.477-8.708-4.515-13.252-2.636
			c-4.543,1.882-7.506,6.316-7.506,11.235v78.459c0,14.006,11.394,25.401,25.4,25.401h66.3v370.642c0,0.561-0.456,1.017-1.018,1.017
			H89.333c-0.562,0-1.018-0.456-1.018-1.017V25.337c0-0.561,0.456-1.017,1.018-1.017h201.933c6.715,0,12.16-5.445,12.16-12.16
			c0-6.715-5.445-12.16-12.16-12.16H89.333C75.362,0,63.994,11.366,63.994,25.337v461.326c0,13.971,11.367,25.337,25.338,25.337
			h333.335c13.971,0,25.338-11.366,25.338-25.337V103.86C448.006,103.803,447.985,103.753,447.98,103.699z M357.384,91.701V91.7
			c-0.595,0-1.08-0.484-1.08-1.081V41.519l50.183,50.183H357.384z"/>
	</g>
</g>
<g>
	<g>
		<path d="M362.013,163.898H255.666c-6.715,0-12.16,5.445-12.16,12.16c0,6.715,5.445,12.16,12.16,12.16h106.347
			c6.715,0,12.16-5.445,12.16-12.16C374.174,169.343,368.729,163.898,362.013,163.898z"/>
	</g>
</g>
<g>
	<g>
		<path d="M362.013,272.329H255.666c-6.715,0-12.16,5.445-12.16,12.16c0,6.715,5.445,12.16,12.16,12.16h106.347
			c6.716,0,12.16-5.444,12.16-12.16C374.174,277.775,368.728,272.329,362.013,272.329z"/>
	</g>
</g>
<g>
	<g>
		<path d="M322.934,380.762H256.23c-6.715,0-12.16,5.445-12.16,12.16c0,6.715,5.445,12.16,12.16,12.16h66.704
			c6.715,0,12.16-5.445,12.16-12.16C335.094,386.207,329.649,380.762,322.934,380.762z"/>
	</g>
</g>
<g>
	<g>
		<path d="M204.326,137.943h-54.34c-6.045,0-10.944,4.899-10.944,10.944v54.34c0,6.045,4.899,10.944,10.944,10.944h54.34
			c6.045,0,10.944-4.899,10.944-10.944v-54.34C215.27,142.842,210.371,137.943,204.326,137.943z M193.382,192.284H160.93v-32.452
			h32.452V192.284z"/>
	</g>
</g>
<g>
	<g>
		<path d="M204.326,246.376h-54.34c-6.045,0-10.944,4.899-10.944,10.944v54.34c0,6.045,4.899,10.944,10.944,10.944h54.34
			c6.045,0,10.944-4.899,10.944-10.944v-54.34C215.27,251.275,210.371,246.376,204.326,246.376z M193.382,300.716H160.93v-32.452
			h32.452V300.716z"/>
	</g>
</g>
<g>
	<g>
		<path d="M204.326,354.807h-54.34c-6.045,0-10.944,4.899-10.944,10.944v54.34c0,6.045,4.899,10.944,10.944,10.944h54.34
			c6.045,0,10.944-4.899,10.944-10.944v-54.34C215.27,359.708,210.371,354.807,204.326,354.807z M193.382,409.148H160.93v-32.452
			h32.452V409.148z"/>
	</g>
</g>
<g>
</g>
<g>
</g>
<g>
</g>
<g>
</g>
<g>
</g>
<g>
</g>
<g>
</g>
<g>
</g>
<g>
</g>
<g>
</g>
<g>
</g>
<g>
</g>
<g>
</g>
<g>
</g>
<g>
</g>
</svg>
