<?xml version="1.0" encoding="iso-8859-1"?>
<!-- Generator: Adobe Illustrator 19.0.0, SVG Export Plug-In . SVG Version: 6.00 Build 0)  -->
<svg version="1.1" id="Layer_1" xmlns="http://www.w3.org/2000/svg" xmlns:xlink="http://www.w3.org/1999/xlink" x="0px" y="0px"
	 viewBox="0 0 512 512" style="enable-background:new 0 0 512 512;" xml:space="preserve">
<g>
	<g>
		<path d="M500.87,107.883c-6.147,0-11.13,4.983-11.13,11.13v292.718H267.13v-1.661c0-12.483,10.155-22.637,22.638-22.637h152.752
			c12.74,0,23.104-10.365,23.104-23.105V100.44c0-12.37-10.064-22.433-22.433-22.433H289.769c-13.452,0-25.532,5.955-33.769,15.357
			c-8.235-9.403-20.316-15.357-33.769-15.357H68.808c-12.37,0-22.433,10.064-22.433,22.433v7.443H11.13
			c-6.147,0-11.13,4.983-11.13,11.13v303.849c0,6.147,4.983,11.13,11.13,11.13H500.87c6.147,0,11.13-4.983,11.13-11.13V119.014
			C512,112.867,507.017,107.883,500.87,107.883z M267.13,122.905c0-12.483,10.155-22.638,22.638-22.638h153.423
			c0.095,0,0.172,0.078,0.172,0.173v263.888c0,0.465-0.378,0.844-0.844,0.844H289.769c-8.251,0-15.988,2.236-22.638,6.135V122.905z
			 M244.87,411.731H22.261V130.144h24.114V365c0,12.37,10.064,22.433,22.433,22.433h153.423c12.483,0,22.638,10.155,22.638,22.637
			V411.731z M244.87,371.307c-6.65-3.899-14.387-6.135-22.638-6.135H68.808c-0.095,0-0.172-0.078-0.172-0.172V100.44
			c0-0.095,0.078-0.172,0.172-0.172h153.423c12.483,0,22.638,10.155,22.638,22.637V371.307z"/>
	</g>
</g>
<g>
	<g>
		<path d="M403.896,141.821H306.6c-6.147,0-11.13,4.983-11.13,11.13s4.983,11.13,11.13,11.13h97.296
			c6.147,0,11.13-4.983,11.13-11.13S410.043,141.821,403.896,141.821z"/>
	</g>
</g>
<g>
	<g>
		<path d="M403.896,221.295H306.6c-6.147,0-11.13,4.983-11.13,11.13c0,6.147,4.983,11.13,11.13,11.13h97.296
			c6.147,0,11.13-4.983,11.13-11.13C415.026,226.278,410.043,221.295,403.896,221.295z"/>
	</g>
</g>
<g>
	<g>
		<path d="M355.248,300.767H306.6c-6.147,0-11.13,4.983-11.13,11.13c0,6.147,4.983,11.13,11.13,11.13h48.648
			c6.147,0,11.13-4.983,11.13-11.13C366.378,305.75,361.395,300.767,355.248,300.767z"/>
	</g>
</g>
<g>
	<g>
		<path d="M205.4,141.821h-97.296c-6.147,0-11.13,4.983-11.13,11.13s4.984,11.13,11.13,11.13H205.4c6.147,0,11.13-4.983,11.13-11.13
			S211.547,141.821,205.4,141.821z"/>
	</g>
</g>
<g>
	<g>
		<path d="M205.4,221.295h-97.296c-6.147,0-11.13,4.983-11.13,11.13c0,6.147,4.984,11.13,11.13,11.13H205.4
			c6.147,0,11.13-4.983,11.13-11.13C216.53,226.278,211.547,221.295,205.4,221.295z"/>
	</g>
</g>
<g>
	<g>
		<path d="M205.4,300.767h-97.296c-6.147,0-11.13,4.983-11.13,11.13c0,6.147,4.984,11.13,11.13,11.13H205.4
			c6.147,0,11.13-4.983,11.13-11.13C216.53,305.75,211.547,300.767,205.4,300.767z"/>
	</g>
</g>
<g>
</g>
<g>
</g>
<g>
</g>
<g>
</g>
<g>
</g>
<g>
</g>
<g>
</g>
<g>
</g>
<g>
</g>
<g>
</g>
<g>
</g>
<g>
</g>
<g>
</g>
<g>
</g>
<g>
</g>
</svg>
