<svg id="Layer_1" data-name="Layer 1" xmlns="http://www.w3.org/2000/svg" viewBox="0 0 105.64 58.07"><defs><style>.cls-1,.cls-2{fill:#fff;}.cls-1,.cls-4,.cls-6,.cls-7{fill-rule:evenodd;}.cls-3{opacity:0.93;}.cls-4{fill:#06aecc;}.cls-5{opacity:0.87;}.cls-6{fill:#95c93d;}.cls-7{fill:#16b4d0;}</style></defs><path class="cls-1" d="M53.79,34.88H50.06v4.5H54a4.21,4.21,0,0,0,2-.45,1.82,1.82,0,0,0,.85-1.77c0-1-.27-1.6-.9-1.88a5.79,5.79,0,0,0-2.15-.41m1.74-2.69a5.9,5.9,0,0,1,1.46.23,5.37,5.37,0,0,1,1.32.53,3.75,3.75,0,0,1,1.61,1.81,6.46,6.46,0,0,1,.49,2.4,5.41,5.41,0,0,1-.38,2.2,4,4,0,0,1-1.37,1.77,4.41,4.41,0,0,1-1.75.75,12.15,12.15,0,0,1-1.93.23h-1l-3.89,0v5.34H46.84V32.15h7c.68,0,1.7,0,1.7,0"/><polygon class="cls-1" points="72.88 44.29 75.01 47.43 71.16 47.43 68.41 42.88 70.14 40.25 72.86 44.3 72.88 44.29"/><polygon class="cls-1" points="68.37 36.19 70.94 32.15 74.64 32.15 70.13 38.81 68.37 36.19"/><polygon class="cls-1" points="66.06 39.79 60.93 32.15 64.66 32.15 67.9 36.94 67.91 36.93 69.66 39.53 64.54 47.43 60.75 47.43 66.06 39.79"/><rect class="cls-2" x="76.32" y="45.26" width="2.1" height="2.19"/><path class="cls-1" d="M83.91,46h2v1.53H83.36a6.34,6.34,0,0,1-1.42-.16,2.57,2.57,0,0,1-1.24-.68,3.35,3.35,0,0,1-.73-1,4.41,4.41,0,0,1-.32-1.23V44.2a1,1,0,0,1,0-.19,1.35,1.35,0,0,1,0-.25c0-.07,0-.17,0-.24A4.13,4.13,0,0,1,80,42.3a3.23,3.23,0,0,1,.73-1,2.56,2.56,0,0,1,1.24-.7,6.42,6.42,0,0,1,1.42-.16h2.56v1.54H83.45a3.38,3.38,0,0,0-.53,0,1.45,1.45,0,0,0-.49.18,1.42,1.42,0,0,0-.66.79,3.18,3.18,0,0,0-.17,1,2.87,2.87,0,0,0,.18,1,1.45,1.45,0,0,0,.65.76,1.4,1.4,0,0,0,.49.18l.53.05h.47Z"/><path class="cls-1" d="M93.18,46.66a3.09,3.09,0,0,1-1.23.76,4.84,4.84,0,0,1-1.5.24A4.66,4.66,0,0,1,89,47.42a3.29,3.29,0,0,1-2-2A4.45,4.45,0,0,1,86.68,44a4.38,4.38,0,0,1,.26-1.46,3.31,3.31,0,0,1,2-2,4.41,4.41,0,0,1,3,0,3.21,3.21,0,0,1,1.23.75A3.17,3.17,0,0,1,94,42.51,4.09,4.09,0,0,1,94.24,44,4.15,4.15,0,0,1,94,45.45a3.19,3.19,0,0,1-.79,1.23ZM89.81,46l.18.06a.41.41,0,0,0,.17,0,1.81,1.81,0,0,0,1.22-.23,1.68,1.68,0,0,0,.76-1,4.58,4.58,0,0,0,.1-.49c0-.17,0-.35,0-.53A2.57,2.57,0,0,0,92,42.73a1.5,1.5,0,0,0-.82-.78,1,1,0,0,0-.26-.08l-.26-.05a2,2,0,0,0-1.16.28,1.69,1.69,0,0,0-.72.94,2.86,2.86,0,0,0-.1.49,2.78,2.78,0,0,0,0,.5,2.9,2.9,0,0,0,.3,1.19,1.55,1.55,0,0,0,.88.79Z"/><path class="cls-1" d="M95.39,40.4h7.21a3.82,3.82,0,0,1,2.16.57,2.33,2.33,0,0,1,.8,2v4.5h-1.89V43.25c0-.66-.14-1-.43-1.15A3.76,3.76,0,0,0,102,42h-.57v5.54H99.48V42h-2.2v5.55H95.39Z"/><g class="cls-3"><path class="cls-4" d="M18.43,15.52l9.22,5.32,9.22,5.32V47.44l-9.22,5.32-9.22,5.32L9.21,52.75,0,47.44V26.16l9.21-5.32ZM8.74,25.44l-2.6,1.51-2.6,1.5v6L6.14,36l2.6,1.5,2.6-1.5,2.6-1.5v-6l-2.6-1.5Z"/></g><g class="cls-5"><polygon class="cls-6" points="36.57 15.67 41.18 18.33 45.79 20.99 45.79 26.31 45.79 31.63 41.18 34.29 36.57 36.95 31.96 34.29 27.36 31.63 27.36 26.31 27.36 20.99 31.96 18.33 36.57 15.67"/></g><polygon class="cls-6" points="31.71 2.29 34.21 3.73 36.71 5.17 36.71 8.06 36.71 10.95 34.21 12.39 31.71 13.84 29.21 12.39 26.71 10.95 26.71 8.06 26.71 5.17 29.21 3.73 31.71 2.29"/><polygon class="cls-7" points="45.02 6.94 46.38 7.72 47.73 8.51 47.73 10.07 47.73 11.63 46.38 12.42 45.02 13.2 43.67 12.42 42.31 11.63 42.31 10.07 42.31 8.51 43.67 7.72 45.02 6.94"/><polygon class="cls-7" points="42.27 0 43.29 0.59 44.31 1.17 44.31 2.35 44.31 3.52 43.29 4.11 42.27 4.7 41.25 4.11 40.24 3.52 40.24 2.35 40.24 1.17 41.25 0.59 42.27 0"/><path class="cls-2" d="M46.81,51a5.76,5.76,0,0,1,1-.08,1.61,1.61,0,0,1,1.1.33,1.06,1.06,0,0,1,.34.82,1.14,1.14,0,0,1-.3.84,1.61,1.61,0,0,1-1.19.43,1.76,1.76,0,0,1-.41,0v1.57h-.5Zm.5,1.89a1.74,1.74,0,0,0,.42,0c.61,0,1-.29,1-.83s-.37-.77-.92-.77a2,2,0,0,0-.48,0Z"/><path class="cls-2" d="M50,53.55a.9.9,0,0,0,1,1,1.79,1.79,0,0,0,.78-.15l.09.37a2.33,2.33,0,0,1-.94.17,1.3,1.3,0,0,1-1.38-1.42A1.37,1.37,0,0,1,50.85,52,1.19,1.19,0,0,1,52,53.31a1.63,1.63,0,0,1,0,.24Zm1.5-.37a.73.73,0,0,0-.71-.83.85.85,0,0,0-.78.83Z"/><path class="cls-2" d="M52.65,52.93c0-.33,0-.61,0-.87h.45v.55h0a.85.85,0,0,1,.78-.62L54,52v.48l-.17,0a.72.72,0,0,0-.69.66,1.69,1.69,0,0,0,0,.24v1.5h-.51Z"/><path class="cls-2" d="M54.77,54.86V52.44h-.4v-.39h.4v-.14a1.32,1.32,0,0,1,.32-1,1,1,0,0,1,.69-.26,1.08,1.08,0,0,1,.44.08l-.07.39a.8.8,0,0,0-.33-.06c-.43,0-.54.38-.54.81v.15H56v.39h-.68v2.42Z"/><path class="cls-2" d="M58.88,53.43a1.37,1.37,0,0,1-1.4,1.49,1.34,1.34,0,0,1-1.35-1.45A1.38,1.38,0,0,1,57.53,52a1.33,1.33,0,0,1,1.35,1.45m-2.23,0c0,.62.36,1.08.86,1.08s.85-.46.85-1.09c0-.48-.24-1.08-.84-1.08s-.87.56-.87,1.09"/><path class="cls-2" d="M59.53,52.93c0-.33,0-.61,0-.87H60l0,.55h0a.85.85,0,0,1,.78-.62l.15,0v.48l-.17,0a.72.72,0,0,0-.69.66,1.52,1.52,0,0,0,0,.24v1.5h-.51Z"/><path class="cls-2" d="M61.45,52.81c0-.29,0-.53,0-.76h.45l0,.45h0A1,1,0,0,1,62.8,52a.84.84,0,0,1,.8.57h0a1.23,1.23,0,0,1,.31-.37,1,1,0,0,1,.62-.2c.37,0,.92.24.92,1.22v1.66H65V53.27c0-.55-.2-.87-.61-.87a.66.66,0,0,0-.6.46.81.81,0,0,0,0,.26v1.74h-.5V53.18c0-.45-.2-.77-.58-.77a.77.77,0,0,0-.68.76v1.7h-.5Z"/><path class="cls-2" d="M67.85,54.86l0-.36h0a1,1,0,0,1-.86.42.8.8,0,0,1-.86-.81c0-.68.6-1.05,1.69-1V53a.58.58,0,0,0-.64-.65,1.4,1.4,0,0,0-.73.21l-.12-.34A1.74,1.74,0,0,1,67.2,52c.86,0,1.07.59,1.07,1.15v1.05a3.89,3.89,0,0,0,0,.67Zm-.08-1.44c-.56,0-1.19.09-1.19.63a.45.45,0,0,0,.48.49.7.7,0,0,0,.68-.47.49.49,0,0,0,0-.16Z"/><path class="cls-2" d="M69.09,52.81c0-.29,0-.53,0-.76h.45l0,.46h0a1,1,0,0,1,.93-.53c.39,0,1,.23,1,1.2v1.68H71V53.24c0-.45-.17-.83-.65-.83a.73.73,0,0,0-.68.52.74.74,0,0,0,0,.24v1.69h-.51Z"/><path class="cls-2" d="M74.32,54.76a1.88,1.88,0,0,1-.81.16,1.34,1.34,0,0,1-1.4-1.44A1.43,1.43,0,0,1,73.62,52a1.75,1.75,0,0,1,.71.14l-.12.4a1.13,1.13,0,0,0-.59-.14,1,1,0,0,0-1,1.06,1,1,0,0,0,1,1.05,1.41,1.41,0,0,0,.63-.14Z"/><path class="cls-2" d="M75.16,53.55a.9.9,0,0,0,1,1,1.79,1.79,0,0,0,.78-.15l.09.37a2.33,2.33,0,0,1-.94.17,1.3,1.3,0,0,1-1.38-1.42A1.37,1.37,0,0,1,76,52a1.19,1.19,0,0,1,1.16,1.33,1.7,1.7,0,0,1,0,.24Zm1.5-.37a.73.73,0,0,0-.71-.83.85.85,0,0,0-.79.83Z"/><path class="cls-2" d="M79.67,53.63l-.41,1.23h-.52l1.33-3.92h.61L82,54.86h-.54l-.42-1.23ZM81,53.24l-.38-1.13c-.09-.26-.14-.49-.2-.72h0c-.06.24-.12.47-.2.71l-.39,1.13Z"/><path class="cls-2" d="M84.85,54.1q0,.43,0,.77h-.45l0-.46h0a1.06,1.06,0,0,1-.93.52c-.44,0-1-.24-1-1.23V52.05H83V53.6c0,.53.16.9.63.9A.74.74,0,0,0,84.3,54a.75.75,0,0,0,0-.27V52.05h.51Z"/><path class="cls-2" d="M86.32,51.24v.81h.73v.39h-.73V54c0,.35.1.55.38.55a1.22,1.22,0,0,0,.3,0l0,.38a1.3,1.3,0,0,1-.45.07A.71.71,0,0,1,86,54.7a1,1,0,0,1-.2-.73V52.44h-.44v-.39h.44v-.68Z"/><path class="cls-2" d="M90.13,53.43a1.38,1.38,0,0,1-1.4,1.49,1.34,1.34,0,0,1-1.35-1.45A1.37,1.37,0,0,1,88.78,52a1.33,1.33,0,0,1,1.36,1.45m-2.23,0c0,.62.35,1.08.85,1.08s.85-.46.85-1.09c0-.48-.24-1.08-.84-1.08s-.86.56-.86,1.09"/><path class="cls-2" d="M90.78,52.81c0-.29,0-.53,0-.76h.45l0,.45h0a1,1,0,0,1,.88-.52.83.83,0,0,1,.8.57h0a1.2,1.2,0,0,1,.31-.37,1,1,0,0,1,.62-.2c.37,0,.92.24.92,1.22v1.66h-.5V53.27c0-.55-.2-.87-.61-.87a.66.66,0,0,0-.6.46.89.89,0,0,0,0,.26v1.74h-.5V53.18c0-.45-.2-.77-.59-.77a.77.77,0,0,0-.67.76v1.7h-.5Z"/><path class="cls-2" d="M97.18,54.86l0-.36h0a1,1,0,0,1-.86.42.8.8,0,0,1-.86-.81c0-.68.6-1.05,1.69-1V53a.58.58,0,0,0-.64-.65,1.4,1.4,0,0,0-.73.21l-.12-.34a1.74,1.74,0,0,1,.92-.25c.86,0,1.07.59,1.07,1.15v1.05a4.15,4.15,0,0,0,0,.67Zm-.07-1.44c-.56,0-1.19.09-1.19.63a.45.45,0,0,0,.48.49.7.7,0,0,0,.68-.47.55.55,0,0,0,0-.16Z"/><path class="cls-2" d="M99,51.24v.81h.73v.39H99V54c0,.35.1.55.39.55a1.21,1.21,0,0,0,.3,0l0,.38a1.29,1.29,0,0,1-.45.07.72.72,0,0,1-.55-.22,1,1,0,0,1-.19-.73V52.44h-.44v-.39h.44v-.68Z"/><path class="cls-2" d="M100.57,53.55a.9.9,0,0,0,1,1,1.82,1.82,0,0,0,.78-.15l.09.37a2.33,2.33,0,0,1-.94.17,1.31,1.31,0,0,1-1.38-1.42A1.37,1.37,0,0,1,101.4,52a1.19,1.19,0,0,1,1.16,1.33,1.5,1.5,0,0,1,0,.24Zm1.5-.37a.73.73,0,0,0-.71-.83.85.85,0,0,0-.78.83Z"/><path class="cls-2" d="M105.62,50.74v3.4c0,.25,0,.54,0,.73h-.46l0-.49h0a1,1,0,0,1-1,.55A1.28,1.28,0,0,1,103,53.5,1.35,1.35,0,0,1,104.25,52a1,1,0,0,1,.85.43h0V50.74Zm-.51,2.46a.94.94,0,0,0,0-.21.76.76,0,0,0-.74-.59c-.53,0-.84.47-.84,1.09s.28,1,.83,1a.77.77,0,0,0,.75-.61,1,1,0,0,0,0-.22Z"/></svg>