<svg id="Layer_1" data-name="Layer 1" xmlns="http://www.w3.org/2000/svg" viewBox="0 0 60 60"><defs><style>.cls-1,.cls-2{fill:#637587;}.cls-1{opacity:0;}</style></defs><rect class="cls-1" width="60" height="60"/><path class="cls-2" d="M28.16,44.39a1.28,1.28,0,0,1,0-2.56l6,0,.57-3.45a1.28,1.28,0,0,1,.94-1A11.76,11.76,0,0,0,39,35.87a1.28,1.28,0,0,1,1.42,0l2.81,2,2.45-2.46-2-2.87a1.28,1.28,0,0,1-.07-1.38,13.31,13.31,0,0,0,1.34-3.37,1.28,1.28,0,0,1,1-1l3.39-.56,0-3.44-3.46-.57a1.28,1.28,0,0,1-1-.93A12.47,12.47,0,0,0,43.4,18a1.28,1.28,0,0,1,0-1.41l2-2.81-2.46-2.45-2.87,2a1.28,1.28,0,0,1-1.38.07,13.34,13.34,0,0,0-3.37-1.34,1.28,1.28,0,0,1-.95-1l-.6-3.37H30.34l-.57,3.46a1.28,1.28,0,0,1-.92,1,12.88,12.88,0,0,0-3.25,1.39,1.28,1.28,0,0,1-1.4,0l-2.83-2-2.45,2.46,2,2.84A1.28,1.28,0,0,1,21,18.28a13,13,0,0,0-1.36,3.36,1.28,1.28,0,0,1-1,1l-3.41.63,0,1.73v1.71l3.45.57a1.28,1.28,0,0,1,1.07,1.34,6.06,6.06,0,0,0,1,3.52,1.28,1.28,0,0,1-2,1.54,8.19,8.19,0,0,1-1.51-4l-2.39-.39a2.58,2.58,0,0,1-2.17-2.53l0-3.4a2.58,2.58,0,0,1,2.14-2.57l2.6-.48a15.56,15.56,0,0,1,1-2.48L16.84,15.6a2.59,2.59,0,0,1,.26-3.34l2.4-2.44a2.58,2.58,0,0,1,3.34-.31L25,11a15.45,15.45,0,0,1,2.36-1l.42-2.65a2.58,2.58,0,0,1,2.53-2.17l3.4,0h0a2.58,2.58,0,0,1,2.56,2.14l.46,2.57a15.85,15.85,0,0,1,2.48,1L41.4,9.29a2.59,2.59,0,0,1,3.34.26L47.18,12a2.58,2.58,0,0,1,.31,3.34L46,17.43a15,15,0,0,1,1.06,2.45l2.64.42a2.58,2.58,0,0,1,2.18,2.53l0,3.4a2.58,2.58,0,0,1-2.14,2.57l-2.59.43a15.86,15.86,0,0,1-1,2.47l1.57,2.18a2.59,2.59,0,0,1-.26,3.34l-2.4,2.44a2.57,2.57,0,0,1-3.34.31l-2.13-1.49a14.33,14.33,0,0,1-2.55,1.1l-.42,2.62a2.58,2.58,0,0,1-2.53,2.17l-6,0Zm4-11.48a8,8,0,1,1,5.75-2.4h0A8,8,0,0,1,32.16,32.92Zm0-13.52A5.5,5.5,0,0,0,28.25,21a5.47,5.47,0,0,0,.07,7.76,5.49,5.49,0,1,0,3.85-9.4ZM37,29.62h0Z"/><path class="cls-2" d="M16,54.84a2.06,2.06,0,0,1-.79-.16l-2-.8a2.1,2.1,0,0,1-1.26-2.41l.29-1.34a10.52,10.52,0,0,1-.84-.82l-1.35.32a2.14,2.14,0,0,1-2.39-1.14l-.87-2.05a2.09,2.09,0,0,1,.81-2.6l1.17-.74a10.06,10.06,0,0,1,0-1.19l-1.18-.73a2.1,2.1,0,0,1-.84-2.58l.8-2a2.1,2.1,0,0,1,2.41-1.26l1.35.29a10.3,10.3,0,0,1,.83-.84l-.32-1.35A2.1,2.1,0,0,1,13,31l2-.84a2.09,2.09,0,0,1,2.6.81l.74,1.17a10.33,10.33,0,0,1,1.12,0l.74-1.2a2.1,2.1,0,0,1,2.58-.84l2,.8A2.1,2.1,0,0,1,26,33.32l-.29,1.33a10.37,10.37,0,0,1,.84.82L28,35.14a2.1,2.1,0,0,1,2.42,1.24l.84,2a2.09,2.09,0,0,1-.81,2.6l-1.14.73a10,10,0,0,1,0,1.18l1.19.73a2.1,2.1,0,0,1,.85,2.58l-.8,2a2.1,2.1,0,0,1-2.41,1.26l-1.33-.31A10.49,10.49,0,0,1,26,50l.32,1.37a2.1,2.1,0,0,1-1.24,2.42l-2,.84a2.09,2.09,0,0,1-2.6-.81l-.72-1.13a9.43,9.43,0,0,1-1.25,0l-.73,1.18A2.1,2.1,0,0,1,16,54.84Zm-.38-2.34h0Zm7-.09h0Zm-6.48-.1h0Zm5.92-.08h0Zm-7.55-.58,1.27.52.95-1.53A1.28,1.28,0,0,1,18,50a6.94,6.94,0,0,0,2.17,0,1.28,1.28,0,0,1,1.3.57l1,1.5,1.29-.55-.41-1.76a1.28,1.28,0,0,1,.46-1.3,7.92,7.92,0,0,0,1.5-1.54,1.28,1.28,0,0,1,1.32-.48l1.72.4.51-1.27-1.54-.95a1.28,1.28,0,0,1-.6-1.25,7.38,7.38,0,0,0,0-2.13A1.28,1.28,0,0,1,27.23,40l1.5-1-.55-1.29-1.76.42a1.28,1.28,0,0,1-1.3-.46,7.9,7.9,0,0,0-1.54-1.5,1.28,1.28,0,0,1-.49-1.3l.38-1.73-1.27-.52-.95,1.54a1.28,1.28,0,0,1-1.25.6,7.63,7.63,0,0,0-2.1,0,1.28,1.28,0,0,1-1.27-.58l-1-1.51-1.29.55L14.79,35a1.28,1.28,0,0,1-.46,1.31,7.73,7.73,0,0,0-1.51,1.53,1.28,1.28,0,0,1-1.3.49l-1.77-.38L9.24,39.2l1.53.95a1.28,1.28,0,0,1,.59,1.27,7.47,7.47,0,0,0,0,2.14,1.28,1.28,0,0,1-.58,1.27l-1.51,1L9.82,47l1.75-.42a1.28,1.28,0,0,1,1.3.45,7.92,7.92,0,0,0,1.53,1.51,1.28,1.28,0,0,1,.49,1.3Zm-.08.37h0Zm9.62-.63h0ZM9,46H9Zm20.19-.2h0Zm-20-.36h0ZM29,45.22h0ZM9.1,39.55h0Zm19.78-.19h0ZM8.9,39h0Zm20.15-.18h0Zm-19.66-1h0ZM28,37.37h0Zm-14-4h0Zm9.51-.62h0ZM16,32.53h0Zm5.81-.06h0Zm.57-.19h0ZM18.95,48a5.53,5.53,0,1,1,2.15-.44h0A5.53,5.53,0,0,1,18.95,48Zm1.65-1.61h0Zm-1.67-6.9a3,3,0,0,0-1.16.24,3,3,0,0,0-1.58,3.91,3,3,0,1,0,2.74-4.14Z"/></svg>