<svg id="Layer_1" data-name="Layer 1" xmlns="http://www.w3.org/2000/svg" viewBox="0 0 60 60"><defs><style>.cls-1,.cls-2{fill:#637587;}.cls-1{opacity:0;}</style></defs><rect class="cls-1" width="60" height="60"/><path class="cls-2" d="M47.33,46H16.67A2.67,2.67,0,0,1,14,43.33v-4h2.67a1.33,1.33,0,1,0,0-2.67H14V30h2.67a1.33,1.33,0,1,0,0-2.67H14V20.67h2.67a1.33,1.33,0,1,0,0-2.67H14V12.67a1.33,1.33,0,1,0-2.67,0V43.33a5.34,5.34,0,0,0,5.33,5.33H47.33a1.33,1.33,0,0,0,0-2.67Z"/><path class="cls-2" d="M20.26,42.66a1.33,1.33,0,0,0,1.08-.56l5.72-8,9.25,2.17a1.33,1.33,0,0,0,1.46-.63l6.07-10.59,1.59,3.54a1.33,1.33,0,0,0,2.43-1.1L45.21,21.6a1.33,1.33,0,0,0-2.37-.12L36,33.48l-9.16-2.15a1.33,1.33,0,0,0-1.39.52l-6.24,8.7a1.33,1.33,0,0,0,1.08,2.11Z"/></svg>