<svg id="Layer_1" data-name="Layer 1" xmlns="http://www.w3.org/2000/svg" viewBox="0 0 60 60"><defs><style>.cls-1{fill:#637587;}</style></defs><path class="cls-1" d="M16.09,19a1.48,1.48,0,1,1,1.48-1.48A1.48,1.48,0,0,1,16.09,19Zm0-5.56a4.08,4.08,0,1,0,4.08,4.08,4.09,4.09,0,0,0-4.08-4.08Z"/><path class="cls-1" d="M16.09,31.48A1.48,1.48,0,1,1,17.57,30a1.48,1.48,0,0,1-1.48,1.48Zm0-5.56A4.08,4.08,0,1,0,20.17,30a4.09,4.09,0,0,0-4.08-4.08Z"/><path class="cls-1" d="M16.09,44a1.48,1.48,0,1,1,1.48-1.48A1.48,1.48,0,0,1,16.09,44Zm0-5.56a4.08,4.08,0,1,0,4.08,4.08,4.09,4.09,0,0,0-4.08-4.08Z"/><path class="cls-1" d="M24.44,16H37a1.3,1.3,0,0,0,0-2.6H24.44a1.3,1.3,0,0,0,0,2.6Z"/><path class="cls-1" d="M46.69,19H24.44a1.3,1.3,0,0,0,0,2.6H46.69a1.3,1.3,0,1,0,0-2.6Z"/><path class="cls-1" d="M24.44,28.52H37a1.3,1.3,0,1,0,0-2.6H24.44a1.3,1.3,0,0,0,0,2.6Z"/><path class="cls-1" d="M46.69,31.48H24.44a1.3,1.3,0,0,0,0,2.6H46.69a1.3,1.3,0,1,0,0-2.6Z"/><path class="cls-1" d="M24.44,41H37a1.3,1.3,0,1,0,0-2.6H24.44a1.3,1.3,0,0,0,0,2.6Z"/><path class="cls-1" d="M24.44,46.6H46.69a1.3,1.3,0,0,0,0-2.6H24.44a1.3,1.3,0,0,0,0,2.6Z"/></svg>